<?xml version="1.0" encoding="utf-8"?>
<!-- Generator: Adobe Illustrator 16.0.4, SVG Export Plug-In . SVG Version: 6.00 Build 0)  -->
<!DOCTYPE svg PUBLIC "-//W3C//DTD SVG 1.1//EN" "http://www.w3.org/Graphics/SVG/1.1/DTD/svg11.dtd">
<svg version="1.1" id="Capa_1" xmlns="http://www.w3.org/2000/svg" xmlns:xlink="http://www.w3.org/1999/xlink" x="0px" y="0px"
	 width="504.213px" height="350.752px" viewBox="0 76.73 504.213 350.752" enable-background="new 0 76.73 504.213 350.752"
	 xml:space="preserve">
<g>
	<g>
		<path fill="#FFFFFF" d="M483.251,93.254L272.11,264.078c-11.245,9.183-29.682,9.183-40.927,0L20.043,93.254
			C12.852,87.44,0,92.489,0,103.046v298.123c0,14.456,11.857,26.313,26.316,26.313h451.58c14.458,0,26.316-11.857,26.316-26.313
			V103.046C504.135,91.265,491.742,86.445,483.251,93.254z"/>
		<path fill="#FFFFFF" d="M53.473,93.254l178.321,144.203c11.246,9.027,29.683,9.027,40.929,0L450.969,93.254
			c11.245-9.026,8.645-16.523-5.814-16.523H59.288C44.676,76.807,42.228,84.227,53.473,93.254z"/>
	</g>
</g>
</svg>
